<?xml version="1.0" standalone="no"?>
<!DOCTYPE svg PUBLIC "-//W3C//DTD SVG 20010904//EN"
 "http://www.w3.org/TR/2001/REC-SVG-20010904/DTD/svg10.dtd">
<svg version="1.0" xmlns="http://www.w3.org/2000/svg"
 width="612.000000pt" height="407.000000pt" viewBox="0 0 612.000000 407.000000"
 preserveAspectRatio="xMidYMid meet">

<g transform="translate(0.000000,407.000000) scale(0.100000,-0.100000)"
fill="#fff" stroke="none">
<path d="M3378 3328 c-52 -62 -146 -176 -208 -253 -63 -77 -117 -142 -120
-145 -3 -3 -23 -27 -46 -55 -22 -27 -103 -126 -180 -220 -76 -93 -176 -214
-221 -270 l-81 -100 271 -3 c209 -2 274 1 283 10 6 7 32 74 57 148 42 123 91
266 280 813 36 103 63 187 62 187 -2 0 -46 -51 -97 -112z"/>
<path d="M1703 2212 l-23 -3 0 -260 0 -259 25 -6 c50 -13 55 3 55 187 0 93 3
169 8 169 4 0 48 -78 97 -172 50 -94 98 -176 106 -181 9 -6 28 -7 42 -3 l27 6
0 260 0 260 -34 0 c-32 0 -34 -2 -41 -46 -3 -25 -6 -100 -5 -167 2 -152 2
-153 -9 -141 -5 5 -50 86 -100 180 -91 171 -101 183 -148 176z"/>
<path d="M960 1951 c0 -227 2 -260 16 -265 24 -9 317 -7 332 3 8 5 12 21 10
37 l-3 29 -135 5 -135 5 -3 181 c-3 214 -20 194 161 194 l117 0 0 35 0 35
-180 0 -180 0 0 -259z"/>
<path d="M1420 2176 c0 -19 5 -38 10 -41 6 -4 10 -78 10 -190 0 -112 -4 -186
-10 -190 -5 -3 -10 -19 -10 -35 0 -33 22 -44 81 -38 31 3 34 6 37 37 2 18 -1
38 -7 44 -14 14 -15 363 -1 372 6 3 10 22 10 41 l0 34 -60 0 -60 0 0 -34z"/>
<path d="M2179 2195 c-5 -54 -19 -50 176 -50 l180 0 3 33 3 32 -180 0 c-154 0
-181 -2 -182 -15z"/>
<path d="M2650 1951 c0 -227 2 -260 16 -265 9 -3 71 -6 139 -6 l123 0 9 -37
c8 -33 12 -38 38 -38 l30 0 3 303 2 302 -180 0 -180 0 0 -259z m274 173 c22
-22 24 -335 2 -353 -9 -8 -46 -11 -103 -9 l-88 3 -3 179 c-2 137 1 181 10 188
7 4 48 8 90 8 56 0 81 -4 92 -16z"/>
<path d="M3150 1950 l0 -260 23 -5 c12 -3 92 -4 177 -3 l155 3 5 250 c3 138 4
256 2 263 -3 6 -19 12 -38 12 l-34 0 0 -208 c0 -152 -3 -213 -13 -226 -10 -14
-26 -16 -102 -14 l-90 3 -5 220 c-4 121 -7 221 -8 223 -1 1 -18 2 -37 2 l-35
0 0 -260z"/>
<path d="M3650 2175 l0 -35 180 0 180 0 0 35 0 35 -180 0 -180 0 0 -35z"/>
<path d="M4137 2204 c-10 -10 -9 -266 1 -281 5 -9 50 -13 142 -15 l135 -3 3
-67 c3 -81 11 -77 -163 -81 -119 -2 -120 -2 -123 -26 -7 -45 18 -51 187 -51
86 0 162 4 169 8 9 7 12 44 10 153 l-3 144 -140 5 -140 5 -3 61 c-2 42 1 64
11 72 8 7 66 13 143 14 l129 3 0 30 0 30 -176 3 c-96 1 -178 -1 -182 -4z"/>
<path d="M4582 2178 c3 -31 5 -33 48 -36 99 -5 90 16 90 -226 0 -232 3 -245
55 -232 l25 6 0 215 c0 160 3 216 13 222 6 4 39 10 72 13 59 5 60 6 60 35 l0
30 -183 3 -183 2 3 -32z"/>
<path d="M2181 1972 c-5 -10 -7 -29 -4 -41 5 -21 8 -21 182 -19 l176 3 0 35 0
35 -172 3 c-159 2 -173 1 -182 -16z"/>
<path d="M3654 1976 c-3 -8 -4 -25 -2 -38 l3 -23 175 0 175 0 0 35 0 35 -173
3 c-143 2 -173 0 -178 -12z"/>
<path d="M2178 1748 c-3 -7 -2 -24 2 -38 l6 -25 154 -3 c193 -3 202 -2 198 41
l-3 32 -176 3 c-136 2 -178 0 -181 -10z"/>
<path d="M3650 1725 c0 -45 6 -46 200 -43 l155 3 0 35 0 35 -177 3 -178 2 0
-35z"/>
<path d="M2829 1530 c-4 -3 -53 -136 -108 -295 -54 -160 -111 -324 -125 -365
-15 -41 -51 -145 -80 -230 -30 -85 -61 -175 -70 -200 -9 -25 -16 -49 -15 -55
0 -12 -3 -15 199 231 85 104 162 198 172 209 14 17 381 463 436 530 10 12 45
55 80 98 35 42 62 77 60 77 -329 4 -542 4 -549 0z"/>
</g>
</svg>
